<svg width="35" height="47" viewBox="0 0 35 47" fill="none" xmlns="http://www.w3.org/2000/svg">
<path fill-rule="evenodd" clip-rule="evenodd" d="M13.1469 30.555C6.99349 28.7506 2.5 23.0631 2.5 16.3261C2.5 8.13787 9.13787 1.5 17.3261 1.5C25.5143 1.5 32.1522 8.13787 32.1522 16.3261C32.1522 23.0631 27.6587 28.7506 21.5053 30.555C27.9384 32.3742 32.6522 38.2888 32.6522 45.3043H31.6522C31.6522 37.9335 26.0857 31.8628 18.9272 31.0667C18.4012 31.1232 17.867 31.1522 17.3261 31.1522C16.7851 31.1522 16.2509 31.1232 15.725 31.0667C8.56651 31.8628 3 37.9335 3 45.3043H2C2 38.2888 6.71376 32.3742 13.1469 30.555ZM15.7269 30.0607C16.2525 30.0062 16.7861 29.9783 17.3261 29.9783C17.8661 29.9783 18.3996 30.0062 18.9253 30.0607C25.8079 29.268 31.1522 23.4212 31.1522 16.3261C31.1522 8.69015 24.962 2.5 17.3261 2.5C9.69015 2.5 3.5 8.69015 3.5 16.3261C3.5 23.4212 8.84428 29.268 15.7269 30.0607Z" fill="#FEF5E7" stroke="#FEF5E7" stroke-width="3"/>
</svg>
