<svg width="45" height="53" viewBox="0 0 45 53" fill="none" xmlns="http://www.w3.org/2000/svg">
<path d="M8.70548 29.5952V19.5952M8.70548 19.5952V13.4048C8.70548 13.4048 8.70548 10.0714 5.35274 10.0714C2 10.0714 2 13.4048 2 13.4048V51.5H25.9482L40.3171 36.7381C43.6698 33.881 43.0768 32.0396 42.7119 31.0238C42.347 30.008 40.3171 28.6429 37.9222 30.0714L25.9482 39.119V9.35714C25.9482 9.35714 25.9482 6.2619 23.0744 6.2619C20.2006 6.2619 19.7216 9.35714 19.7216 9.35714M8.70548 19.5952V7.21429C8.70548 7.21429 8.70548 4.35714 11.5793 4.35714C13.9741 4.35714 13.9741 7.21429 13.9741 7.21429V13.4048M13.9741 24.3571V13.4048M13.9741 13.4048V4.35714C13.9741 4.35714 13.9741 1.5 16.8479 1.5C19.7216 1.5 19.7216 4.35714 19.7216 4.35714V9.35714M19.7216 26.2619V14.3571V9.35714" stroke="#FEF5E7" stroke-width="3"/>
</svg>
