<svg width="60" height="63" viewBox="0 0 60 63" fill="none" xmlns="http://www.w3.org/2000/svg">
<path d="M44.9195 58.532C42.4461 65.9503 36.0222 55.1206 34.7649 46.1682M44.9195 58.532C44.9195 56.5 44.9195 57.8255 44.9195 53.9398M44.9195 58.532C47.3929 65.5971 53.9832 54.8367 54.731 46.1682M34.7649 46.1682C33.6955 38.5528 34.9769 30.7683 40.6794 29.5653C40.6794 29.5653 36.3114 24.3303 36.7926 20.0275C37.2913 15.5681 40.4357 13.112 44.9195 13.3158C49.2127 13.5109 51.2647 15.792 51.9863 20.0275C52.6535 23.9431 48.8062 29.5653 48.8062 29.5653C53.7394 30.8805 55.382 38.6223 54.731 46.1682M34.7649 46.1682C40.6794 39.5 44 48.5 44.9195 53.9398M34.7649 46.1682H28.5M44.9195 53.9398C46.5 47.5 50 40.5 54.731 46.1682M54.731 46.1682H60M13.1186 58.532C2.66836 32.2691 -3.52766 20.8785 8.87849 18.2613C8.87849 18.2613 4.51053 13.0263 4.99175 8.72345C5.49048 4.26404 8.63487 1.80799 13.1186 2.01174C17.4118 2.20684 19.4638 4.48792 20.1855 8.72345C20.8526 12.6391 17.0054 18.2613 17.0054 18.2613C27.6057 21.0873 25.4842 30.0145 13.1186 58.532Z" stroke="#FEF5E7" stroke-width="3"/>
</svg>
