<svg width="40" height="48" viewBox="0 0 40 48" fill="none" xmlns="http://www.w3.org/2000/svg">
<path d="M3.54286 41.9243H36.4571M3.54286 41.9243C3.54286 41.9243 4.98253 24.8302 8.68571 15.9953C10.7692 11.0246 14.5812 9.28413 17.2003 8.68033M3.54286 41.9243C3.54286 41.9243 2 42.9486 2 44.2121C2 45.4757 3.54286 46.5 3.54286 46.5H36.4571C36.4571 46.5 38 45.1056 38 44.2121C38 43.3187 36.4571 41.9243 36.4571 41.9243M36.4571 41.9243C36.4571 41.9243 35.1418 24.8941 31.3143 15.9953C29.1634 10.9947 24.9781 9.27305 22.3449 8.68033M17.2003 8.68033C18.8315 8.30427 20 8.36912 20 8.36912C20 8.36912 20.9568 8.36786 22.3449 8.68033M17.2003 8.68033C17.2003 8.68033 17.8228 1.26858 20 1.50556C22.0941 1.73351 22.3449 8.68033 22.3449 8.68033" stroke="#FEF5E7" stroke-width="3"/>
</svg>
