<svg width="242" height="142" viewBox="0 0 242 142" fill="none" xmlns="http://www.w3.org/2000/svg">
<path d="M0.25 113.962V109.193C4.06872 108.699 7.88743 107.055 9.8798 105.411C13.3665 102.286 14.6947 98.8327 14.6947 94.3926C8.21949 92.7481 4.56681 87.3214 4.56681 81.7302C4.56681 77.2901 6.89124 72.0278 12.8684 69.5611V69.0677C9.21568 65.4499 3.57062 59.3654 3.57062 50.3208C3.57062 39.1384 12.0382 30.7516 30.7997 24.0093C44.4143 19.2403 54.8742 10.0313 54.8742 6.41343C54.8742 5.42675 54.5422 4.76896 52.0517 4.76896H47.7349V0H92.7293V4.76896H84.2617V109.193H92.7293V113.962H53.0479V109.193H61.3494V34.205L61.0174 34.0405C60.0212 36.1783 59.025 38.4806 56.8666 41.1118C53.2139 46.0452 49.3952 48.8408 45.5765 51.8008C42.754 53.9386 39.5994 56.4053 36.7768 59.2009C31.7959 64.1343 29.8035 66.7655 25.9848 72.0278C28.6413 74.3301 30.4677 77.619 30.4677 81.7302C30.4677 87.3214 26.6489 92.7481 20.1737 94.3926C20.1737 98.8327 21.502 102.286 24.9886 105.411C26.981 107.055 30.7997 108.699 34.6184 109.193V113.962H0.25ZM15.5249 61.1743C15.5249 63.8054 16.355 67.0944 17.5172 68.9033C19.0115 68.9033 20.6718 69.0677 22.0001 69.5611C25.6528 64.6277 27.6451 62.161 32.294 57.392C35.6146 53.9386 39.2673 50.6497 42.92 48.0185C46.9047 45.0585 49.5612 42.7562 52.8819 38.9739C57.8628 32.8894 61.3494 27.2982 61.3494 19.5692V7.40012H60.5193C56.7006 14.4713 48.233 21.3781 40.2635 25.4893C32.7921 29.436 26.815 33.8761 21.502 41.6051C17.0191 48.183 15.5249 56.2409 15.5249 61.1743Z" fill="white"/>
<path d="M108.135 113.962V109.193H116.603V4.76896H108.135V0H186.834C188.162 0 188.826 0.32889 188.826 0.986679C188.826 1.80891 188.162 3.28894 187.83 3.94673C183.513 12.3335 181.521 23.8448 181.023 31.2449C181.023 32.2316 179.363 32.725 178.366 32.725C177.536 32.725 175.876 32.3961 175.71 31.2449C174.714 26.3115 172.721 19.5692 168.903 14.3069C164.752 8.71569 158.609 4.76896 150.805 4.76896H139.349V41.7695C139.349 49.4986 147.319 54.1031 153.462 56.8987C159.107 59.5298 165.084 60.3521 172.555 60.3521H187.664C191.649 60.3521 191.649 62.8188 191.649 64.6277V109.686C191.649 112.317 190.155 113.962 187.498 113.962H108.135ZM139.349 109.193H164.752C169.235 109.193 169.733 107.055 169.733 103.602V72.0278C169.733 69.89 169.733 67.9166 167.076 66.4366C165.582 65.6144 163.091 64.7921 160.767 64.2988C153.13 62.4899 145.492 59.2009 139.847 54.432L139.349 54.5964V109.193Z" fill="white"/>
<path d="M54.0214 139.698C54.0214 138.218 54.6855 137.395 56.3458 137.231L65.9756 136.244C68.134 136.08 70.2924 135.587 70.2924 132.462V53.0342C70.2924 44.8118 66.1417 42.8384 57.342 42.8384C55.3496 42.8384 54.0214 42.3451 54.0214 40.7006C54.0214 38.7273 55.6817 38.2339 57.0099 38.0695C69.1302 36.2606 78.2619 32.3138 84.9032 27.216C85.7333 26.7226 87.0616 25.9004 88.0578 25.9004C90.0501 25.9004 90.3822 27.0515 90.3822 28.3671V132.462C90.3822 135.587 92.3746 136.08 94.533 136.244L104.329 137.231C105.989 137.395 106.487 138.218 106.487 139.698C106.487 141.342 105.823 142 104.827 142C102.669 142 96.5253 141.507 93.2047 141.178C89.552 140.849 83.4089 140.356 80.2543 140.356C77.0997 140.356 70.9566 140.849 67.3039 141.178C63.9832 141.507 57.8401 142 55.6817 142C54.6855 142 54.0214 141.342 54.0214 139.698Z" fill="#EAB25E"/>
<path d="M157.57 139.369C157.57 137.724 158.4 136.409 158.899 136.08C190.278 106.479 211.198 85.2658 211.198 57.9676C211.198 47.6074 204.059 38.7273 189.946 38.7273C182.143 38.7273 172.845 43.0029 165.872 51.7186C164.544 53.3631 163.713 54.3497 162.385 54.3497C160.393 54.3497 159.563 53.5275 159.563 51.5541C159.563 47.2785 177.826 24.2559 199.244 24.2559C219.5 24.2559 233.945 35.2739 233.945 53.692C233.945 70.3011 215.183 89.5414 197.916 105.657C191.773 111.413 185.962 116.84 181.147 122.266V123.089H223.651C229.296 123.089 230.624 121.28 233.613 115.853C234.609 113.88 236.601 110.755 238.76 110.755C240.254 110.755 241.25 111.577 241.25 112.893C241.25 113.551 240.586 115.853 240.088 117.333L231.454 140.684H158.899C158.234 140.684 157.57 140.027 157.57 139.369Z" fill="#EAB25E"/>
</svg>
