<svg width="260" height="216" viewBox="0 0 260 216" fill="none" xmlns="http://www.w3.org/2000/svg">
<path d="M56.9768 163.621V200.858V208.211L62.1206 202.956L78.7837 185.934C92.704 171.714 111.765 163.7 131.664 163.7H176.75C220.947 163.7 256.75 127.59 256.75 83.4213C256.75 39.2526 220.947 3.14258 176.75 3.14258H83.75C39.5672 3.14258 3.75 38.9598 3.75 83.1425V107.473C3.75 137.52 27.3183 162.062 56.9768 163.621Z" stroke="#EAB25E" stroke-width="6"/>
<path d="M59.936 117.197V114.233C62.3641 113.927 64.7921 112.904 66.059 111.882C68.2759 109.94 69.1204 107.794 69.1204 105.034C65.0033 104.012 62.6808 100.64 62.6808 97.1644C62.6808 94.4048 64.1587 91.1342 67.9592 89.6011V89.2944C65.6367 87.0459 62.0474 83.2642 62.0474 77.6428C62.0474 70.6926 67.4313 65.48 79.3605 61.2895C88.017 58.3255 94.6678 52.6019 94.6678 50.3533C94.6678 49.74 94.4566 49.3312 92.8731 49.3312H90.1283V46.3672H118.737V49.3312H113.353V114.233H118.737V117.197H93.5065V114.233H98.7849V67.6264L98.5737 67.5242C97.9403 68.8529 97.3069 70.2838 95.9346 71.9191C93.6121 74.9854 91.184 76.7229 88.756 78.5626C86.9613 79.8913 84.9555 81.4244 83.1609 83.162C79.9939 86.2282 78.7271 87.8635 76.299 91.1342C77.9881 92.5651 79.1493 94.6092 79.1493 97.1644C79.1493 100.64 76.7213 104.012 72.6041 105.034C72.6041 107.794 73.4487 109.94 75.6656 111.882C76.9324 112.904 79.3605 113.927 81.7885 114.233V117.197H59.936ZM69.6482 84.3885C69.6482 86.0238 70.1761 88.068 70.9151 89.1922C71.8652 89.1922 72.9208 89.2944 73.7654 89.6011C76.0879 86.5348 77.3547 85.0017 80.3106 82.0377C82.4219 79.8913 84.7444 77.8472 87.0669 76.2119C89.6005 74.3721 91.2896 72.9412 93.4009 70.5904C96.568 66.8087 98.7849 63.3337 98.7849 58.5299V50.9665H98.257C95.829 55.3615 90.445 59.6542 85.3778 62.2094C80.6273 64.6624 76.8268 67.422 73.4487 72.2257C70.5984 76.3141 69.6482 81.3222 69.6482 84.3885Z" fill="white"/>
<path d="M128.533 117.197V114.233H133.917V49.3312H128.533V46.3672H178.572C179.416 46.3672 179.838 46.5716 179.838 46.9804C179.838 47.4915 179.416 48.4113 179.205 48.8202C176.46 54.0328 175.193 61.1873 174.877 65.7867C174.877 66.3999 173.821 66.7065 173.188 66.7065C172.66 66.7065 171.604 66.5021 171.499 65.7867C170.865 62.7204 169.598 58.5299 167.17 55.2593C164.531 51.7842 160.625 49.3312 155.664 49.3312H148.379V72.328C148.379 77.1317 153.447 79.9935 157.353 81.7311C160.942 83.3664 164.742 83.8774 169.493 83.8774H179.099C181.633 83.8774 181.633 85.4105 181.633 86.5348V114.54C181.633 116.175 180.683 117.197 178.994 117.197H128.533ZM148.379 114.233H164.531C167.381 114.233 167.698 112.904 167.698 110.758V91.1342C167.698 89.8055 167.698 88.579 166.009 87.6591C165.059 87.1481 163.475 86.637 161.998 86.3304C157.141 85.2061 152.285 83.162 148.696 80.198L148.379 80.3002V114.233Z" fill="white"/>
</svg>
